<?xml version="1.0" encoding="utf-8"?>
<!-- Generator: Adobe Illustrator 25.4.1, SVG Export Plug-In . SVG Version: 6.00 Build 0)  -->
<svg version="1.1" id="Layer_1" xmlns="http://www.w3.org/2000/svg" xmlns:xlink="http://www.w3.org/1999/xlink" x="0px" y="0px"
	 viewBox="0 0 64 62.3" style="enable-background:new 0 0 64 62.3;" xml:space="preserve">
<style type="text/css">
	.st0{fill:#66C7BA;}
</style>
<g>
	<path class="st0" d="M35,46.5H8c-2.5,0-4.5-2-4.5-4.5V12c0-2.5,2-4.5,4.5-4.5h7c0.8,0,1.5,0.7,1.5,1.5s-0.7,1.5-1.5,1.5H8
		c-0.8,0-1.5,0.7-1.5,1.5v30c0,0.8,0.7,1.5,1.5,1.5h27c0.8,0,1.5,0.7,1.5,1.5S35.8,46.5,35,46.5z"/>
	<path class="st0" d="M53,30.4c-0.8,0-1.5-0.7-1.5-1.5V12c0-0.8-0.7-1.5-1.5-1.5h-7c-0.8,0-1.5-0.7-1.5-1.5s0.7-1.5,1.5-1.5h7
		c2.5,0,4.5,2,4.5,4.5v16.9C54.5,29.7,53.8,30.4,53,30.4z"/>
	<path class="st0" d="M23,54.5c-0.8,0-1.5-0.7-1.5-1.5v-8c0-0.8,0.7-1.5,1.5-1.5s1.5,0.7,1.5,1.5v8C24.5,53.8,23.8,54.5,23,54.5z"/>
	<path class="st0" d="M35,54.5H17c-0.8,0-1.5-0.7-1.5-1.5s0.7-1.5,1.5-1.5h18c0.8,0,1.5,0.7,1.5,1.5S35.8,54.5,35,54.5z"/>
	<path class="st0" d="M35,39.5H5c-0.8,0-1.5-0.7-1.5-1.5s0.7-1.5,1.5-1.5h30c0.8,0,1.5,0.7,1.5,1.5S35.8,39.5,35,39.5z"/>
	<path class="st0" d="M40,31.5H18c-2.5,0-4.5-2-4.5-4.5V8c0-2.5,2-4.5,4.5-4.5h22c2.5,0,4.5,2,4.5,4.5v19
		C44.5,29.5,42.5,31.5,40,31.5z M18,6.5c-0.8,0-1.5,0.7-1.5,1.5v19c0,0.8,0.7,1.5,1.5,1.5h22c0.8,0,1.5-0.7,1.5-1.5V8
		c0-0.8-0.7-1.5-1.5-1.5H18z"/>
	<path class="st0" d="M25.7,26.5c-0.4,0-0.8-0.2-1.1-0.5c-0.5-0.6-0.5-1.6,0.2-2.1l9.3-7.9c0.5-0.4,1.1-0.5,1.6-0.2l8,4
		c0.7,0.4,1,1.3,0.7,2s-1.3,1-2,0.7l-7.1-3.6l-8.5,7.3C26.4,26.4,26.1,26.5,25.7,26.5L25.7,26.5z"/>
	<path class="st0" d="M15,26.6c-0.5,0-0.9-0.2-1.2-0.6c-0.5-0.7-0.4-1.6,0.3-2.1l8-6c0.5-0.4,1.3-0.4,1.8,0l5,4
		c0.6,0.5,0.8,1.5,0.2,2.1c-0.5,0.6-1.5,0.8-2.1,0.2L23,21l-7.1,5.3C15.6,26.5,15.3,26.6,15,26.6z"/>
	<path class="st0" d="M28,17.5c-2.5,0-4.5-2-4.5-4.5s2-4.5,4.5-4.5s4.5,2,4.5,4.5S30.5,17.5,28,17.5z M28,11.5
		c-0.8,0-1.5,0.7-1.5,1.5s0.7,1.5,1.5,1.5s1.5-0.7,1.5-1.5S28.8,11.5,28,11.5z"/>
</g>
<path class="st0" d="M59,33.5H35c-0.8,0-1.5,0.7-1.5,1.5v24c0,0.8,0.7,1.5,1.5,1.5h24c0.8,0,1.5-0.7,1.5-1.5V35
	C60.5,34.2,59.8,33.5,59,33.5z M55,53.5h-3.5c0,0.8-0.7,1.5-1.5,1.5h0c-0.8,0-1.4-0.7-1.5-1.5H39c-0.8,0-1.5-0.7-1.5-1.5
	s0.7-1.5,1.5-1.5h9.6c0-0.8,0.7-1.5,1.5-1.5h0c0.8,0,1.4,0.7,1.5,1.5H55c0.8,0,1.5,0.7,1.5,1.5S55.8,53.5,55,53.5z M55,43.5h-9.5
	c0,0.8-0.7,1.5-1.5,1.5s-1.5-0.7-1.5-1.5H39c-0.8,0-1.5-0.7-1.5-1.5s0.7-1.5,1.5-1.5h3.5c0-0.8,0.7-1.5,1.5-1.5s1.5,0.7,1.5,1.5H55
	c0.8,0,1.5,0.7,1.5,1.5S55.8,43.5,55,43.5z"/>
</svg>
