<?xml version="1.0" encoding="utf-8"?>
<!-- Generator: Adobe Illustrator 25.4.1, SVG Export Plug-In . SVG Version: 6.00 Build 0)  -->
<svg version="1.1" id="Layer_1" xmlns="http://www.w3.org/2000/svg" xmlns:xlink="http://www.w3.org/1999/xlink" x="0px" y="0px"
	 viewBox="0 0 64 64.1" style="enable-background:new 0 0 64 64.1;" xml:space="preserve">
<style type="text/css">
	.st0{fill:#66C7BA;}
</style>
<g>
	<path class="st0" d="M45,17v2h14v-2h-2v-1.1c2.7-2.8,2.7-7.2-0.1-9.9S49.7,3.3,47,6.1c-2.7,2.7-2.7,7.1,0,9.8V17H45z M48.7,14.7
		c-2.1-1.8-2.2-5-0.4-7.1c1.8-2.1,5-2.2,7.1-0.4s2.2,5,0.4,7.1c-0.1,0.1-0.3,0.3-0.4,0.4c-0.2,0.2-0.3,0.5-0.3,0.7V17h-2v-2.6
		l2.7-2.7l-1.4-1.4L52,12.6l-2.3-2.3l-1.4,1.4l2.7,2.7V17h-2v-1.5C49,15.2,48.9,14.9,48.7,14.7z"/>
	<rect x="10" y="10" class="st0" width="2" height="2"/>
	<rect x="46" y="25" class="st0" width="2" height="2"/>
	<path class="st0" d="M11,6c-2.8,0-5,2.2-5,5s2.2,5,5,5s5-2.2,5-5C16,8.2,13.8,6,11,6z M11,14c-1.7,0-3-1.3-3-3s1.3-3,3-3s3,1.3,3,3
		S12.7,14,11,14z"/>
	<path class="st0" d="M61,37H40V3c0-0.6-0.4-1-1-1H3C2.4,2,2,2.4,2,3v54c0,0.6,0.4,1,1,1h4v1c0,1.7,1.3,3,3,3s3-1.3,3-3v-1h9v3
		c0,0.6,0.4,1,1,1h38c0.6,0,1-0.4,1-1V38C62,37.4,61.6,37,61,37z M59.9,39c-0.5,2.3-2.5,4-4.9,4H29c-2.4,0-4.4-1.7-4.9-4H59.9z
		 M9,34h2v16H9V34z M9.1,32l0.9-1.8l0.9,1.8H9.1z M9,52h2v2H9V52z M10,60c-0.6,0-1-0.4-1-1v-3h2v3C11,59.6,10.6,60,10,60z M13,56V32
		c0-0.2,0-0.3-0.1-0.4l-2-4c-0.3-0.5-0.9-0.7-1.4-0.4c-0.1,0.1-0.3,0.2-0.4,0.4l-2,4C7,31.7,7,31.8,7,32v24H4V4h34v33H23
		c-0.6,0-1,0.4-1,1v18H13z M60,60H24V42.9c1.3,1.3,3.1,2.1,5,2.1h26c1.9,0,3.7-0.8,5-2.1V60z"/>
	<path class="st0" d="M61,21H43c-0.6,0-1,0.4-1,1v12c0,0.6,0.4,1,1,1h18c0.6,0,1-0.4,1-1V22C62,21.4,61.6,21,61,21z M60,33H44V23h16
		V33z"/>
	<rect x="51" y="29" class="st0" width="5" height="2"/>
	<rect x="19" y="8" class="st0" width="17" height="2"/>
	<rect x="19" y="12" class="st0" width="13" height="2"/>
	<rect x="26" y="52" class="st0" width="2" height="2"/>
	<rect x="31" y="52" class="st0" width="13" height="2"/>
	<rect x="31" y="56" class="st0" width="9" height="2"/>
	<rect x="51" y="25" class="st0" width="7" height="2"/>
</g>
</svg>
