<?xml version="1.0" encoding="utf-8"?>
<!-- Generator: Adobe Illustrator 25.4.1, SVG Export Plug-In . SVG Version: 6.00 Build 0)  -->
<svg version="1.1" id="Layer_1" xmlns="http://www.w3.org/2000/svg" xmlns:xlink="http://www.w3.org/1999/xlink" x="0px" y="0px"
	 viewBox="0 0 24 24" style="enable-background:new 0 0 24 24;" xml:space="preserve">
<style type="text/css">
	.st0{fill:#66C7BA;}
</style>
<path class="st0" d="M3,17.2V21h3.8L17.8,9.9l-3.7-3.8L3,17.2 M22.6,18.4l-4.2,4.2l-5.2-5.2l1.8-1.8l1,1l2.5-2.5l1.4,1.4L18.4,17
	l1.1,1l1.4-1.4L22.6,18.4 M6.6,10.8L1.4,5.6l4.2-4.2l1.8,1.8L4.9,5.6L6,6.7l2.5-2.5l1.4,1.4L8.5,7.1l1,1L6.6,10.8 M20.7,7
	c0.4-0.4,0.4-1,0-1.4l-2.3-2.3c-0.4-0.4-1-0.4-1.4,0l-1.8,1.8l3.8,3.8L20.7,7z"/>
</svg>
