<?xml version="1.0" encoding="utf-8"?>
<!-- Generator: Adobe Illustrator 25.4.1, SVG Export Plug-In . SVG Version: 6.00 Build 0)  -->
<svg version="1.1" id="Layer_1" xmlns="http://www.w3.org/2000/svg" xmlns:xlink="http://www.w3.org/1999/xlink" x="0px" y="0px"
	 viewBox="0 0 24 24" style="enable-background:new 0 0 24 24;" xml:space="preserve">
<style type="text/css">
	.st0{fill:#66C7BA;}
</style>
<path class="st0" d="M22.7,14.3l-1,1l-2-2l1-1c0.1-0.1,0.2-0.2,0.4-0.2c0.1,0,0.3,0.1,0.4,0.2l1.3,1.3
	C22.9,13.8,22.9,14.1,22.7,14.3 M13,19.9V22h2.1l6.1-6.1l-2-2L13,19.9 M11.2,15.8l-2-2.4L6.5,17h6.6l2.5-2.4L14,12.3L11.2,15.8
	 M11,19.9V19l0.1,0H5V5h14v6.3l2-1.9V5c0-1.1-0.9-2-2-2H5C3.9,3,3,3.9,3,5v14c0,1.1,0.9,2,2,2h6V19.9z"/>
</svg>
