<?xml version="1.0" encoding="utf-8"?>
<!-- Generator: Adobe Illustrator 25.4.1, SVG Export Plug-In . SVG Version: 6.00 Build 0)  -->
<svg version="1.1" id="Layer_1" xmlns="http://www.w3.org/2000/svg" xmlns:xlink="http://www.w3.org/1999/xlink" x="0px" y="0px"
	 viewBox="0 0 100 100" style="enable-background:new 0 0 100 100;" xml:space="preserve">
<style type="text/css">
	.st0{display:none;}
	.st1{display:inline;}
	.st2{fill:#66C7BA;}
</style>
<g class="st0">
	<g class="st1">
		<g>
			<path d="M29.6,62.2h-0.1h-0.6c-1.7,0-3.1-1.4-3.1-3.1v-25c0-1.7,1.4-3.1,3.1-3.1h35c1.7,0,3.1,1.5,3.1,3.2v24.9
				c0,1.7-1.4,3.1-3.1,3.1H48.1c-0.8,0-2.4-0.5-2.8-2.3c-0.8-2.9-3.5-5.1-6.7-5.1s-6,2.3-6.7,5.4C31.8,61.5,30.7,62.2,29.6,62.2z
				 M28.9,33.4c-0.4,0-0.8,0.3-0.8,0.7v25c0,0.4,0.4,0.8,0.8,0.8h0.7l0.1-0.2c0.9-4.1,4.7-7.2,9-7.2c4.1,0,7.8,2.8,8.9,6.8
				c0.1,0.5,0.5,0.6,0.6,0.6h15.7c0.4,0,0.8-0.4,0.8-0.8V34.2c0-0.4-0.4-0.8-0.8-0.8C63.9,33.4,28.9,33.4,28.9,33.4z"/>
		</g>
	</g>
	<g class="st1">
		<circle cx="38.7" cy="61.8" r="4.9"/>
	</g>
	<g class="st1">
		<circle cx="79.1" cy="61.8" r="4.9"/>
	</g>
	<g class="st1">
		<path d="M89.1,48.6c0,0-0.1-1.6-0.2-2.3s-0.8-2-0.8-2l-5.4-10.1c-0.7-1.1-2.3-2-3.4-2h-8.1c-1.1,0-1.9,0.9-1.9,1.9v25
			c0,1.1,0.9,1.9,1.9,1.9h0.5c0,0,0.7-0.1,1-1c0.7-2.9,3.4-5.1,6.5-5.1s5.7,2.1,6.5,4.9c0.3,1.2,1.7,1.2,1.7,1.2
			c1.1,0,1.9-0.9,1.9-1.9L89.1,48.6z M83.5,45.5H75c-0.7,0-1.3-0.6-1.3-1.3v-6.7c0-0.7,0.6-1.3,1.3-1.3h2.9c1.6,0,2.7,1.3,3,1.9
			l3.3,6.2C84.6,45,84.3,45.5,83.5,45.5z"/>
	</g>
	<path class="st1" d="M18.5,35.2H10c-0.5,0-1-0.4-1-1c0-0.5,0.4-1,1-1h8.5c0.5,0,1,0.4,1,1C19.5,34.7,19.1,35.2,18.5,35.2z"/>
	<path class="st1" d="M21,41.2h-5.3c-0.5,0-1-0.4-1-1c0-0.5,0.4-1,1-1H21c0.5,0,1,0.4,1,1C22,40.8,21.5,41.2,21,41.2z"/>
	<path class="st1" d="M90,68.6H13.3c-0.5,0-1-0.4-1-1c0-0.5,0.4-1,1-1H90c0.5,0,1,0.4,1,1C91,68.1,90.5,68.6,90,68.6z"/>
</g>
<g class="st0">
	<g class="st1">
		<g>
			<g>
				<path d="M57.7,72.8H15.4c-1.3,0-2.4-0.5-3.3-1.4c-0.9-0.9-1.4-2.1-1.4-3.3V25.7c0-2.2,1.2-3.2,2.5-3.2c0.8,0,1.6,0.4,2.4,1.2
					l44.2,44.2c1.4,1.4,1.2,2.6,1,3.2C60.4,71.8,59.7,72.8,57.7,72.8z M13.7,26.2v41.8c0,0.4,0.2,0.8,0.5,1.2
					c0.3,0.3,0.7,0.5,1.2,0.5h41.8L13.7,26.2z M34.9,61.8h-11c-1.3,0-2.4-1.1-2.4-2.4v-11c0-1.3,0.9-2,1.8-2c0.4,0,0.9,0.1,1.4,0.6
					l11.5,11.5c0.6,0.6,0.8,1.4,0.5,2.1C36.5,61.5,35.8,61.8,34.9,61.8z M24.6,58.8h7.5l-7.5-7.5C24.6,51.3,24.6,58.8,24.6,58.8z"/>
			</g>
		</g>
	</g>
	<g class="st1">
		<g>
			<g>
				<path d="M20.1,35.7c-0.1,0-0.3-0.1-0.4-0.2c-0.2-0.2-0.2-0.6,0-0.8l2.5-2.5c0.2-0.2,0.6-0.2,0.8,0c0.2,0.2,0.2,0.6,0,0.8
					l-2.5,2.5C20.4,35.5,20.3,35.7,20.1,35.7z"/>
			</g>
		</g>
		<g>
			<g>
				<path d="M24,39.5c-0.1,0-0.3-0.1-0.4-0.2c-0.2-0.2-0.2-0.6,0-0.8l2.5-2.5c0.2-0.2,0.6-0.2,0.8,0c0.2,0.2,0.2,0.6,0,0.8l-2.5,2.5
					C24.3,39.5,24.1,39.5,24,39.5z"/>
			</g>
		</g>
		<g>
			<g>
				<path d="M27.9,43.5c-0.1,0-0.3-0.1-0.4-0.2c-0.2-0.2-0.2-0.6,0-0.8L30,40c0.2-0.2,0.6-0.2,0.8,0c0.2,0.2,0.2,0.6,0,0.8l-2.5,2.5
					C28.2,43.3,28,43.5,27.9,43.5z"/>
			</g>
		</g>
		<g>
			<g>
				<path d="M31.8,47.2c-0.1,0-0.3-0.1-0.4-0.2c-0.2-0.2-0.2-0.6,0-0.8l2.5-2.5c0.2-0.2,0.6-0.2,0.8,0s0.2,0.6,0,0.8L32.2,47
					C32,47.2,31.9,47.2,31.8,47.2z"/>
			</g>
		</g>
		<g>
			<g>
				<path d="M35.6,51.1c-0.1,0-0.3-0.1-0.4-0.2c-0.2-0.2-0.2-0.6,0-0.8l2.5-2.5c0.2-0.2,0.6-0.2,0.8,0s0.2,0.6,0,0.8L36,51
					C35.9,51.1,35.8,51.1,35.6,51.1z"/>
			</g>
		</g>
		<g>
			<g>
				<path d="M39.5,55c-0.1,0-0.3-0.1-0.4-0.2c-0.2-0.2-0.2-0.6,0-0.8l2.5-2.5c0.2-0.2,0.6-0.2,0.8,0s0.2,0.6,0,0.8l-2.5,2.5
					C39.8,55,39.7,55,39.5,55z"/>
			</g>
		</g>
		<g>
			<g>
				<path d="M43.4,59c-0.1,0-0.3-0.1-0.4-0.2c-0.2-0.2-0.2-0.6,0-0.8l2.5-2.5c0.2-0.2,0.6-0.2,0.8,0s0.2,0.6,0,0.8l-2.5,2.5
					C43.7,58.8,43.5,59,43.4,59z"/>
			</g>
		</g>
		<g>
			<g>
				<path d="M47.3,62.8c-0.1,0-0.3-0.1-0.4-0.2c-0.2-0.2-0.2-0.6,0-0.8l2.5-2.5c0.2-0.2,0.6-0.2,0.8,0s0.2,0.6,0,0.8l-2.5,2.5
					C47.6,62.8,47.4,62.8,47.3,62.8z"/>
			</g>
		</g>
		<g>
			<g>
				<path d="M51.1,66.6c-0.1,0-0.3-0.1-0.4-0.2c-0.2-0.2-0.2-0.6,0-0.8l2.5-2.5c0.2-0.2,0.6-0.2,0.8,0s0.2,0.6,0,0.8l-2.5,2.5
					C51.4,66.6,51.3,66.6,51.1,66.6z"/>
			</g>
		</g>
	</g>
	<g class="st1">
		<path d="M87.5,28.6L22.9,11.7c-2.5-0.6-5.1,0.9-5.7,3.5l-0.6,2.6l2.5,2.6l1.1-4.4c0.2-0.9,1.1-1.5,2-1.2l64.7,16.8
			c0.9,0.2,1.5,1.1,1.2,2L75.5,84.8c-0.2,0.9-1.1,1.5-2,1.2l-31.6-8.2l-10.7,0.4l41.6,10.8c2.5,0.6,5.1-0.9,5.7-3.5L91,34.3
			C91.6,31.8,90.1,29.2,87.5,28.6z"/>
	</g>
	<g class="st1">
		<path d="M78.1,40.2c-0.1,0-0.2,0-0.2,0L26.3,26.3c-0.5-0.1-0.8-0.7-0.7-1.2c0.1-0.5,0.7-0.8,1.2-0.7l51.5,13.8
			c0.5,0.1,0.8,0.7,0.7,1.2C78.9,40,78.5,40.2,78.1,40.2z"/>
	</g>
	<g class="st1">
		<path d="M68.4,64.8c-0.1,0-0.2,0-0.2,0c-0.5-0.1-0.8-0.6-0.7-1.2L74.7,35c0.1-0.5,0.6-0.8,1.2-0.7c0.5,0.1,0.8,0.6,0.7,1.2
			l-7.2,28.6C69.2,64.6,68.8,64.8,68.4,64.8z"/>
	</g>
</g>
<g class="st0">
	<g class="st1">
		<g>
			<path d="M48.3,81.6C40.9,81.6,11,58.3,11,37.9c0-10.1,4.9-18.4,12.7-21.6c7.7-3.2,16.8-0.9,24.6,6.2c7.8-7.1,16.9-9.4,24.6-6.2
				c7.8,3.2,12.7,11.5,12.7,21.6c0,1.8-0.2,3.8-0.7,5.7c-0.2,1-1.2,1.6-2.2,1.3c-1-0.2-1.6-1.2-1.3-2.2c0.4-1.7,0.6-3.3,0.6-4.9
				c0-8.6-4-15.6-10.5-18.3c-6.7-2.8-14.9-0.3-21.9,6.6c-0.7,0.7-1.9,0.7-2.6,0c-7-7-15.1-9.4-21.9-6.6c-6.5,2.7-10.5,9.7-10.5,18.3
				c0.1,19,28.9,40.2,33.7,40.2c1,0,1.8,0.8,1.8,1.8S49.3,81.6,48.3,81.6z"/>
		</g>
		<g>
			<path d="M87.1,62.5h-8.3v-8.3c0-1-0.8-1.8-1.8-1.8h-8.6c-1,0-1.8,0.8-1.8,1.8v8.3h-8.3c-1,0-1.8,0.8-1.8,1.8v8.6
				c0,1,0.8,1.8,1.8,1.8h8.3V83c0,1,0.8,1.8,1.8,1.8H77c1,0,1.8-0.8,1.8-1.8v-8.3h8.3c1,0,1.8-0.8,1.8-1.8v-8.6
				C89,63.2,88.1,62.5,87.1,62.5z"/>
		</g>
	</g>
</g>
<g>
	<g>
		<g>
			<path class="st2" d="M65.6,96.9c-0.6,0-1.3-0.1-1.9-0.3L15.6,82.1c-1-0.3-1.5-1.4-1.3-2.3c0.3-1,1.3-1.6,2.3-1.3L64.9,93
				c0.6,0.2,1.3,0.1,1.7-0.1c0.6-0.2,0.9-0.7,1.2-1.4l20.9-65.1c0.3-1.2-0.2-2.5-1.5-2.9L71.9,18c-1-0.3-1.5-1.4-1.2-2.4
				c0.3-1,1.4-1.5,2.4-1.2L88.5,20c3.1,1,4.9,4.4,3.8,7.6l-20.9,65c-0.5,1.5-1.5,2.8-3,3.6C67.6,96.7,66.7,96.9,65.6,96.9z"/>
		</g>
		<g>
			<path class="st2" d="M20.4,61.9c-0.6,0-1.3-0.3-1.6-0.8c-0.3-0.6-0.5-1.3-0.1-1.9L25.1,46c0.2-0.5,0.7-0.8,1.2-0.9
				c0.5-0.1,1-0.1,1.5,0.1l6.8,3.9l6.5-8.3c0.3-0.5,1-0.8,1.6-0.7c0.6,0,1.2,0.3,1.5,0.9l9.3,16.2c0.3,0.6,0.3,1.3,0,1.9
				C53.1,59.7,52.5,60,52,60L20.4,61.9C20.5,61.9,20.4,61.9,20.4,61.9z M27.7,49.5L23.5,58l25.1-1.5l-6.4-11.1l-5.7,7.4
				c-0.6,0.7-1.6,0.9-2.4,0.5L27.7,49.5z"/>
		</g>
		<path class="st2" d="M73.3,11.4L57.7,8.7l-0.1-2.1c-0.1-2.2-2-3.8-4.2-3.8c-0.1,0-0.2,0-0.3,0L11.2,5.9C8.9,6,7.2,8.1,7.4,10.4
			l5,68.2c0.1,2.2,2,3.8,4.2,3.8c0.1,0,0.2,0,0.3,0H17l43.4,7.4c2.3,0.3,4.6-1.2,5-3.6l11.5-69.9C77.2,14,75.6,11.8,73.3,11.4z
			 M16.4,78.7c-0.2,0-0.3-0.1-0.3-0.3l-5-68.3c0-0.2,0.1-0.5,0.3-0.5l41.9-3.1l0,0c0.2,0,0.3,0.1,0.5,0.3l5,68.2
			c0,0.1,0,0.2-0.1,0.3c0,0.2-0.1,0.2-0.2,0.2L16.4,78.7z"/>
		<path class="st2" d="M19.3,22.3c-1,0-2-0.8-2.1-2c-0.1-1.2,0.8-2.2,2-2.3l13.5-1.2c1.2-0.1,2.2,0.8,2.3,2c0.1,1.2-0.8,2.2-2,2.3
			l-13.5,1.2C19.4,22.3,19.3,22.3,19.3,22.3z"/>
		<path class="st2" d="M20.1,30.5c-1,0-2-0.8-2.1-2c-0.1-1.2,0.8-2.2,2-2.3l7.3-0.6c1.2-0.1,2.2,0.8,2.3,2c0.1,1.2-0.8,2.2-2,2.3
			l-7.3,0.6C20.3,30.5,20.3,30.5,20.1,30.5z"/>
	</g>
</g>
</svg>
