<?xml version="1.0" encoding="utf-8"?>
<!-- Generator: Adobe Illustrator 25.4.1, SVG Export Plug-In . SVG Version: 6.00 Build 0)  -->
<svg version="1.1" id="Layer_1" xmlns="http://www.w3.org/2000/svg" xmlns:xlink="http://www.w3.org/1999/xlink" x="0px" y="0px"
	 viewBox="0 0 512 512" style="enable-background:new 0 0 512 512;" xml:space="preserve">
<style type="text/css">
	.st0{fill:#66C7BA;}
</style>
<path class="st0" d="M448,109.3l54.6-54.6c12.5-12.5,12.5-32.8,0-45.3s-32.8-12.5-45.3,0L402.7,64H160v64h178.7L128,338.7V32
	c0-17.7-14.3-32-32-32S64,14.3,64,32v32H32C14.3,64,0,78.3,0,96s14.3,32,32,32h32v256c0,35.3,28.7,64,64,64h224v-64H173.3L384,173.3
	V480c0,17.7,14.3,32,32,32s32-14.3,32-32v-32h32c17.7,0,32-14.3,32-32s-14.3-32-32-32h-32V109.3L448,109.3z"/>
</svg>
