<?xml version="1.0" encoding="utf-8"?>
<!-- Generator: Adobe Illustrator 25.4.1, SVG Export Plug-In . SVG Version: 6.00 Build 0)  -->
<svg version="1.1" id="Layer_1" xmlns="http://www.w3.org/2000/svg" xmlns:xlink="http://www.w3.org/1999/xlink" x="0px" y="0px"
	 viewBox="0 0 100 100" style="enable-background:new 0 0 100 100;" xml:space="preserve">
<style type="text/css">
	.st0{fill:#66C7BA;}
</style>
<g id="Layer_2_00000086657901435824855300000004752459006979412892_">
</g>
<g id="Layer_1_00000026162726650319965050000017273716552807369405_">
	<g>
		<g>
			<path class="st0" d="M77.8,2H42.5l24.4,20c0.7,0.6,1.1,1.4,1.1,2.3V74h9.8c1.4,0,2.6-1.2,2.6-2.6V4.6C80.4,3.2,79.2,2,77.8,2z"/>
		</g>
		<g>
			<path class="st0" d="M36.6,2.8c-0.4-0.3-1,0-1,0.5v17.3h22.6L36.6,2.8z"/>
		</g>
		<g>
			<path class="st0" d="M18.8,27.6v66.9c0,1.4,1.2,2.6,2.6,2.6H61c1.4,0,2.6-1.2,2.6-2.6V25H21.4C20,25,18.8,26.2,18.8,27.6z
				 M47.7,86.4h-13c-1.2,0-2.2-1-2.2-2.2s1-2.2,2.2-2.2h13c1.2,0,2.2,1,2.2,2.2S48.9,86.4,47.7,86.4z M51.6,75.4H30.8
				c-1.2,0-2.2-1-2.2-2.2s1-2.2,2.2-2.2h20.8c1.2,0,2.2,1,2.2,2.2S52.8,75.4,51.6,75.4z M27.9,40.5c0-2.3,1.9-4.2,4.2-4.2h18.2
				c2.3,0,4.2,1.9,4.2,4.2v19.8c0,2.3-1.9,4.2-4.2,4.2H32.1c-2.3,0-4.2-1.9-4.2-4.2C27.9,60.3,27.9,40.5,27.9,40.5z"/>
		</g>
		<g>
			<path class="st0" d="M32.8,59.9h16.8c0.8,0,1.3-0.9,0.9-1.5l-5.9-9.6c-0.4-0.6-1.3-0.6-1.7,0l-3.6,5.9l-1.7-2.9
				c-0.4-0.6-1.3-0.6-1.7,0l-4,6.5C31.5,59,32,59.9,32.8,59.9z"/>
		</g>
		<g>
			<circle class="st0" cx="37.6" cy="44.8" r="3.5"/>
		</g>
	</g>
</g>
</svg>
