<?xml version="1.0" encoding="utf-8"?>
<!-- Generator: Adobe Illustrator 25.4.1, SVG Export Plug-In . SVG Version: 6.00 Build 0)  -->
<svg version="1.1" id="Layer_1" xmlns="http://www.w3.org/2000/svg" xmlns:xlink="http://www.w3.org/1999/xlink" x="0px" y="0px"
	 viewBox="0 0 100 100" style="enable-background:new 0 0 100 100;" xml:space="preserve">
<style type="text/css">
	.st0{fill:#66C7BA;}
</style>
<g id="Layer_2_00000007418312459428341120000004393513858132608440_">
</g>
<g id="Layer_1_00000060016853087394688610000004112815383340469889_">
	<g>
		<path class="st0" d="M92.1,33c0-2.6-5.3-4.4-5.9-6.8c-0.7-2.4,3-6.7,1.7-8.8c-1.3-2.2-6.7-1.1-8.5-2.9S78.7,7.3,76.5,6
			c-2.1-1.2-6.4,2.4-8.8,1.7c-2.4-0.6-4.2-5.9-6.8-5.9s-4.4,5.3-6.8,5.9c-2.4,0.7-6.7-3-8.8-1.7c-2.2,1.3-1.1,6.7-2.9,8.5
			c-1.8,1.8-7.2,0.7-8.5,2.9c-1.2,2.1,2.4,6.4,1.7,8.8c-0.6,2.4-5.9,4.2-5.9,6.8s5.3,4.4,5.9,6.8c0.7,2.5-3,6.7-1.7,8.8
			c1.3,2.2,6.7,1.1,8.5,2.9c0.5,0.5,0.8,1.3,1,2.2l18.2,0.8c2.3,0.1,4.4,1.1,5.9,2.8c0.1,0.2,0.3,0.3,0.4,0.5l10.3-3.1
			c0.2-1.3,0.5-2.5,1.1-3.2c1.8-1.8,7.2-0.7,8.5-2.9c1.2-2.1-2.4-6.4-1.7-8.8C86.8,37.4,92.1,35.5,92.1,33z M73.7,28.2L58.6,43.3
			c-1.1,1.1-3,1.1-4.2,0L48,36.9c-1.1-1.1-1.1-3,0-4.2c1.1-1.1,3-1.1,4.2,0l4.3,4.3l13-13c1.2-1.2,3-1.2,4.2,0
			C74.9,25.1,74.9,27,73.7,28.2z"/>
		<path class="st0" d="M13.7,76.2l-5.4,7c-0.6,0.8-0.5,1.9,0.3,2.6l14,10.7c0.8,0.6,1.9,0.5,2.6-0.3l5.4-7L14.1,76.5
			C13.9,76.4,13.8,76.3,13.7,76.2z"/>
		<g>
			<path class="st0" d="M82.1,58.5l-12.9,3.9c0,0.3,0,0.6,0,0.9c-0.2,3.6-2.8,6.7-6.4,7.4L62,70.9c-4.7,1-9.5,1.5-14.3,1.7l-3.9,0.1
				c-1.2,0-2.2-0.9-2.2-2.1s0.9-2.2,2.1-2.2l3.9-0.1c4.5-0.1,9.1-0.7,13.6-1.6l0.8-0.2c1.6-0.3,2.8-1.7,2.9-3.4
				c0.1-1-0.3-1.9-0.9-2.7c-0.7-0.7-1.6-1.1-2.5-1.2l-20.6-0.9c-2.3-0.1-4.6,0.6-6.4,1.9L17.1,72.6l17.7,13.5L52,87.9
				c3,0.3,6-0.5,8.5-2.4L86,65.9c1-0.7,1.5-1.8,1.6-3c0.1-1.2-0.3-2.4-1.1-3.2C85.4,58.5,83.7,58,82.1,58.5z"/>
		</g>
	</g>
</g>
</svg>
