<?xml version="1.0" encoding="utf-8"?>
<!-- Generator: Adobe Illustrator 25.4.1, SVG Export Plug-In . SVG Version: 6.00 Build 0)  -->
<svg version="1.1" id="Layer_1" xmlns="http://www.w3.org/2000/svg" xmlns:xlink="http://www.w3.org/1999/xlink" x="0px" y="0px"
	 viewBox="0 0 100 100" style="enable-background:new 0 0 100 100;" xml:space="preserve">
<style type="text/css">
	.st0{fill:#66C7BA;}
</style>
<g>
	<path class="st0" d="M53.3,84.4c0-2.3,0.6-4.6,1.7-6.7L69.4,53v-3h1.7l3.7-6.5h-5.5V30.6h12.9v1.7c1.4-1,3.1-1.5,4.9-1.5
		c0.5,0,1.1,0.1,1.6,0.2V17.7c0-5.9-4.8-10.8-10.8-10.8H15.6c-5.9,0-10.8,4.8-10.8,10.8v58.1c0,5.9,4.8,10.8,10.8,10.8h37.8
		C53.4,86.6,53.3,84.4,53.3,84.4z M69.4,13.4H78c2.4,0,4.3,1.9,4.3,4.3v6.5H69.4V13.4z M24.2,80.1h-8.6c-2.4,0-4.3-1.9-4.3-4.3v-6.5
		h12.9V80.1z M24.2,62.9H11.2V50h12.9V62.9z M24.2,43.5H11.2V30.6h12.9V43.5z M24.2,24.2H11.2v-6.5c0-2.4,1.9-4.3,4.3-4.3h8.6V24.2z
		 M34.9,57.8V37.9c0-3.3,3.6-5.4,6.5-3.7l17.2,10c2.9,1.7,2.9,5.8,0,7.5l-17.2,10C38.5,63.2,34.9,61.1,34.9,57.8L34.9,57.8z"/>
	<path class="st0" d="M82.3,73.7v2.2c0,2.2-1.6,3.9-3.7,4.2l-3.8,6.5H78c5.9,0,10.8-4.8,10.8-10.8V62.5L82.3,73.7L82.3,73.7z"/>
	<path class="st0" d="M79.5,44.1L59.8,78.2L71,84.7l19.7-34.2L79.5,44.1z M80.1,60.2c-0.6,1-1.9,1.4-2.9,0.8s-1.4-1.9-0.8-2.9
		l3.2-5.6c0.6-1,1.9-1.4,2.9-0.8c1,0.6,1.4,1.9,0.8,2.9L80.1,60.2z"/>
	<path class="st0" d="M92.8,46.8l1.8-3.1c1.2-2.1,0.5-4.7-1.6-5.9l-3.7-2.2c-2.1-1.2-4.7-0.5-5.9,1.6l-1.8,3.1
		C81.6,40.3,92.8,46.8,92.8,46.8z"/>
	<path class="st0" d="M57.9,82.1c-0.2,0.7-0.3,1.5-0.3,2.2l0.1,6.6c0,1.6,1.8,2.6,3.2,1.8l5.8-3.2c0.7-0.4,1.3-0.8,1.8-1.3
		L57.9,82.1L57.9,82.1z"/>
</g>
</svg>
