<?xml version="1.0" encoding="utf-8"?>
<!-- Generator: Adobe Illustrator 25.4.1, SVG Export Plug-In . SVG Version: 6.00 Build 0)  -->
<svg version="1.1" id="Layer_1" xmlns="http://www.w3.org/2000/svg" xmlns:xlink="http://www.w3.org/1999/xlink" x="0px" y="0px"
	 viewBox="0 0 32 32" style="enable-background:new 0 0 32 32;" xml:space="preserve">
<style type="text/css">
	.st0{fill:#66C7BA;}
</style>
<g>
	<path class="st0" d="M5.4,8.5V4H5C2.8,4,1.1,5.7,1.1,7.8v0.6H5.4z"/>
	<rect x="1.1" y="10.4" class="st0" width="4.2" height="3.5"/>
	<rect x="1.1" y="15.8" class="st0" width="4.2" height="3.5"/>
	<path class="st0" d="M5.4,21.3H1.1v0.6c0,2.1,1.7,3.8,3.8,3.8h0.4V21.3z"/>
	<rect x="23.8" y="10.4" class="st0" width="4.2" height="3.5"/>
	<path class="st0" d="M23.8,8.5H28V7.8C28,5.7,26.3,4,24.2,4h-0.4L23.8,8.5L23.8,8.5z"/>
	<path class="st0" d="M29.4,19.9l0.9-0.9c0.9-0.9,0.9-2.3,0-3.2c-0.9-0.9-2.3-0.9-3.2,0l-0.9,0.9L29.4,19.9z"/>
	<path class="st0" d="M24.8,18.1l-6.1,6.1c-0.1,0.1-0.2,0.3-0.2,0.4l-0.4,2.5c-0.1,0.5,0.4,1,0.9,0.9l2.5-0.4c0.2,0,0.3-0.1,0.4-0.2
		l6.1-6.1L24.8,18.1z"/>
	<path class="st0" d="M16.6,24.3c0.1-0.6,0.4-1.1,0.8-1.5l4.5-4.5V4H7.3v21.7h9.1L16.6,24.3z M12.6,16.6v-3.4c0-1.1,1.2-1.7,2-1.1
		l2.4,1.7c0.7,0.5,0.7,1.6,0,2.1l-2.4,1.7C13.8,18.2,12.6,17.6,12.6,16.6z"/>
</g>
</svg>
