<svg xmlns="http://www.w3.org/2000/svg" viewBox="0 0 6997.33 6997.33"><defs><style>.cls-1{fill:#66c7ba;}</style></defs><g id="Layer_2" data-name="Layer 2"><g id="Layer_1-2" data-name="Layer 1"><path class="cls-1" d="M3498.67,0C1566.41,0,0,1566.41,0,3498.67S1566.41,6997.33,3498.67,6997.33s3498.66-1566.4,3498.66-3498.66S5430.93,0,3498.67,0Zm-526.8,1026.67a236.88,236.88,0,0,1,13.46-22.16c49-71.35,306.09-401.93,752.49-220.49,35.38,14.37,67,36.9,91.29,66.34,37.68,45.59,68.8,119.49,20,222.22l-1031,1970.48-921.19-12.2ZM1733.81,5435a376.35,376.35,0,0,1-144.41-28.64c-74.78-31.07-187.9-93.2-301.78-212.82,0,0-291.28-233.94-173.44-657.76a273,273,0,0,1,22.59-56.05l330-613.13s76.25-106.76,213.51-154c0,0,120.49-53.38,344.69-74.73,0,0,166.24-15.25,277.57,39.66,0,0,73.21,41.18,125.06,94.55L1686.19,5191.68a57.47,57.47,0,0,0-4.49,41.84c9.36,34,38.31,76.78,126.31,73.59,11.91-.43,23.83-.73,35.75-.68l1529.47,5.43h12.2S3515.07,5428,3566.92,5435Zm4165.81-588.24A596.13,596.13,0,0,1,5859.78,4975s-119,260.8-292.83,355.36c-123.76,67.31-238.25,90.57-294,98.38a398.06,398.06,0,0,1-55.41,3.8h-1204s-368.32,25.93-633.7-278.34L2837,4145.35s-239.25-397.29-312-455.29c-3.33-2.66-8.63-7.19-11.73-10.12-34.26-32.42-201.61-177.18-438.86-156.84,0,0-364.51,44.22-474.32,93L1771.21,3286c.65-1.25,1.26-2.5,1.87-3.77,7.1-15,71.92-140.2,254-137.33L2779,3151s264.61-5.34,552.86,257.75c0,0,108.09,123.16,172.88,262.9,8.48,18.28,16.35,36.85,25.94,54.58L4173,4914s200.81,339.26,429.25,385.91a154.39,154.39,0,0,0,30.94,3h375.59l194.65,1.72c11.34.26,21.74,1.43,33.57,1,36.06-1.2,112.83,6.55,76.05-114.85-43.14-142.37-1524.19-2898.18-1693.25-3212.56a202.75,202.75,0,0,1-24.29-89.21c-1.42-42.69,5.75-102.7,43.65-161.72,3.14-4.9,7.84-13.16,10.53-18.32l308.27-592.6s42.7-74.74,33.55-144.89C3983.14,907.61,5558.33,3905,5838.13,4437.81,5904.06,4563.34,5926.39,4707.55,5899.62,4846.79Z"/></g></g></svg>