<svg xmlns="http://www.w3.org/2000/svg" viewBox="0 0 4824.57 4704.72"><defs><style>.cls-1{fill:#66c7ba;}</style></defs><g id="Layer_2" data-name="Layer 2"><g id="Layer_1-2" data-name="Layer 1"><path class="cls-1" d="M810.78,2300.55l1075-2004.18a234.92,234.92,0,0,1,13.46-22.17c49-71.35,306.09-401.93,752.49-220.49,35.38,14.38,67,36.9,91.29,66.34,37.68,45.59,68.8,119.5,20,222.22L1732,2312.75Z"/><path class="cls-1" d="M514,2885.82,685.1,2555.65c.64-1.25,1.26-2.5,1.87-3.77,7.1-15,71.92-140.19,254-137.33l751.9,6.11s264.61-5.34,552.86,257.74c0,0,108.09,123.16,172.88,262.9,8.48,18.29,16.35,36.85,25.94,54.58l642.29,1187.84s200.81,339.26,429.25,385.91a155.1,155.1,0,0,0,30.93,3h375.6l194.65,1.71c11.34.26,21.73,1.44,33.56,1,36.07-1.19,112.84,6.55,76-114.85C4183.76,4318.16,2702.72,1562.35,2533.66,1248a202.79,202.79,0,0,1-24.29-89.22c-1.42-42.69,5.75-102.7,43.65-161.72,3.14-4.89,7.84-13.16,10.53-18.32l308.27-592.6s42.7-74.73,33.55-144.89C2897,177.3,4472.22,3174.69,4752,3707.5c65.93,125.53,88.26,269.75,61.49,409a596.13,596.13,0,0,1-39.84,128.24s-119,260.8-292.83,355.36c-123.76,67.31-238.25,90.57-294,98.39a399.59,399.59,0,0,1-55.41,3.79h-1204s-368.32,25.93-633.7-278.33L1750.84,3415.05s-239.25-397.3-312-455.3c-3.33-2.66-8.63-7.19-11.73-10.12-34.26-32.42-201.61-177.18-438.86-156.84C988.27,2792.79,623.76,2837,514,2885.82Z"/><path class="cls-1" d="M1341.53,3041.77,600.08,4461.38a57.47,57.47,0,0,0-4.49,41.84c9.36,34,38.31,76.77,126.31,73.59,11.91-.43,23.83-.73,35.75-.69l1529.47,5.43h12.2s129.64,116.09,181.49,123.17H647.7a376.35,376.35,0,0,1-144.41-28.64c-74.78-31.06-187.9-93.2-301.78-212.82,0,0-291.28-233.94-173.44-657.75a272.17,272.17,0,0,1,22.59-56.05l330-613.13s76.26-106.76,213.52-154c0,0,120.49-53.38,344.69-74.73,0,0,166.24-15.26,277.57,39.65C1216.47,2947.21,1289.68,2988.39,1341.53,3041.77Z"/></g></g></svg>